<svg width="139" height="139" viewBox="0 0 139 139" fill="none" xmlns="http://www.w3.org/2000/svg">
<path d="M42.9464 100.27L42.5504 100.576C42.559 100.587 42.5669 100.597 42.5721 100.603L42.5833 100.617L42.5959 100.633L42.6097 100.648C42.7496 100.799 42.8861 100.95 43.0181 101.104L43.0352 101.124L43.0543 101.142C43.3571 101.429 43.7125 101.658 44.1342 101.699C44.5677 101.741 44.967 101.575 45.332 101.289C46.0276 100.745 46.7796 99.6192 47.7252 97.8831C48.955 95.625 50.3391 92.8247 51.7818 89.9059C52.8813 87.6815 54.0148 85.3882 55.14 83.2136C56.4366 80.7078 58.9525 76.747 61.1569 73.3957C62.2566 71.7238 63.2747 70.2097 64.0179 69.1136C64.3894 68.5656 64.6922 68.1222 64.902 67.8158C65.0069 67.6626 65.0886 67.5438 65.144 67.4632L65.207 67.3717L65.223 67.3485L65.2239 67.3472L69.8255 61.1127L69.8279 61.1094L108.624 9.42594C111.282 11.9325 112.395 15.1146 112.436 18.7269C112.48 22.5335 111.333 26.8057 109.536 31.2131C108.655 33.3767 106.238 37.3678 103.073 42.1786C99.9174 46.9733 96.0469 52.5389 92.2869 57.8308C88.5274 63.122 84.8805 68.1367 82.1733 71.8287C80.8197 73.6747 79.7012 75.1898 78.9212 76.2434C78.5311 76.7702 78.2257 77.1816 78.0179 77.4612L77.7808 77.7798L77.7213 77.8597L69.1376 86.4558C69.1338 86.4575 69.1299 86.4593 69.1258 86.4611C69.0612 86.4903 68.9672 86.5337 68.8463 86.5915C68.6047 86.707 68.256 86.8802 67.8222 87.1132C66.9548 87.5792 65.7459 88.2851 64.3718 89.2483C61.626 91.1731 58.2066 94.1355 55.5406 98.2783C52.8956 102.388 50.6653 107.272 49.0991 111.118C48.315 113.042 47.6953 114.712 47.2716 115.9C47.0597 116.495 46.8966 116.969 46.7864 117.295C46.7313 117.458 46.6894 117.585 46.6612 117.67L46.6293 117.768L46.6211 117.793L46.619 117.799L46.6184 117.801L46.6183 117.802C46.6182 117.802 46.6182 117.802 46.7271 117.837L46.6116 117.816C44.7788 124.799 39.1475 129.812 32.5564 129.812C24.5095 129.812 17.875 122.323 17.875 112.938C17.875 103.552 24.5095 96.0625 32.5564 96.0625C35.8536 96.0625 38.902 97.3136 41.3614 99.4361L41.3711 99.4445L41.3812 99.4524C41.8716 99.8335 42.2744 100.22 42.5515 100.577L42.9464 100.27ZM42.9464 100.27C42.6361 99.8707 42.1998 99.4553 41.6881 99.0576L42.9762 100.308C42.9703 100.3 42.9644 100.293 42.9585 100.286C42.9545 100.281 42.9504 100.276 42.9464 100.27ZM24.4771 112.938C24.4771 117.938 28.0324 122.125 32.5564 122.125C37.0807 122.125 40.6357 117.938 40.6357 112.938C40.6357 107.937 37.0807 103.75 32.5564 103.75C28.0324 103.75 24.4771 107.937 24.4771 112.938ZM64.6562 73.8438C64.6562 76.519 66.825 78.6875 69.5 78.6875C72.1753 78.6875 74.3438 76.519 74.3438 73.8438C74.3438 71.1688 72.1753 69 69.5 69C66.825 69 64.6562 71.1688 64.6562 73.8438Z" fill="#40E0D0" stroke="#00005A"/>
<path d="M30.3071 9.42595L66.1249 57.1409L65.5518 57.9045L65.5517 57.9047L65.5411 57.9188L65.541 57.9188L65.5374 57.9237L65.5285 57.9359L65.5271 57.9378L60.9199 64.1799L60.9198 64.1801L60.8792 64.235L60.8742 64.2418L60.8694 64.2488L60.8312 64.3043C60.8311 64.3045 60.831 64.3046 60.8309 64.3048C60.6647 64.5453 58.5873 67.5585 56.2494 71.1339C52.179 65.5751 46.2565 57.3945 40.9701 49.7387C38.2326 45.7744 35.6681 41.9541 33.6203 38.7131C31.5656 35.4612 30.0517 32.8241 29.3951 31.2131C27.5988 26.8057 26.4512 22.5335 26.4953 18.7269C26.5371 15.1146 27.6501 11.9325 30.3071 9.42595Z" fill="#40E0D0" stroke="#00005A"/>
<path d="M95.9849 100.27L96.3798 100.577C96.6569 100.22 97.0597 99.8335 97.5501 99.4524L97.5602 99.4445L97.5699 99.4361C100.03 97.3136 103.078 96.0625 106.375 96.0625C114.425 96.0625 121.125 103.555 121.125 112.938C121.125 122.32 114.425 129.813 106.375 129.813C99.7841 129.813 94.1528 124.799 92.3203 117.816L92.2048 117.837C92.3136 117.802 92.3136 117.802 92.3136 117.802L92.3134 117.801L92.3129 117.799L92.3108 117.793L92.3026 117.768L92.2706 117.67C92.2424 117.585 92.2005 117.458 92.1454 117.295C92.0352 116.969 91.8722 116.495 91.6603 115.9C91.2365 114.712 90.6169 113.042 89.8328 111.118C88.2666 107.273 86.0364 102.388 83.3915 98.2783L83.3915 98.2782C80.5974 93.9369 76.9776 90.893 74.1697 88.9792L81.5282 81.6102L81.5284 81.61L81.7491 81.3888L81.7746 81.3632L81.7961 81.3343L81.9826 81.0839C81.9826 81.0838 81.9827 81.0837 81.9827 81.0837C82.0764 80.9581 82.1935 80.8011 82.3324 80.6145C82.9028 81.5776 83.4029 82.4625 83.7915 83.2136L83.7915 83.2136C84.9168 85.3883 86.0503 87.6815 87.1498 89.906C88.5925 92.8248 89.9766 95.625 91.2064 97.8831C92.1519 99.6192 92.904 100.745 93.5996 101.29C93.9646 101.575 94.3639 101.741 94.7974 101.699C95.2191 101.658 95.5745 101.429 95.8773 101.142L95.8962 101.124L95.9133 101.105C96.0454 100.951 96.1823 100.799 96.3222 100.648L96.3358 100.633L96.3482 100.617C96.3487 100.616 96.3501 100.615 96.3519 100.612C96.3586 100.604 96.3723 100.587 96.3809 100.576L95.9849 100.27ZM95.9849 100.27C96.2952 99.8707 96.7315 99.4553 97.2433 99.0576L82.6558 80.1799C83.2732 81.217 83.8169 82.1745 84.2356 82.9838C85.3717 85.1795 86.5078 87.4782 87.607 89.7024C89.0434 92.609 90.417 95.3883 91.6455 97.644C93.5486 101.138 94.4793 101.776 95.5337 100.779C95.6711 100.619 95.8125 100.462 95.9553 100.308C95.9654 100.295 95.9749 100.283 95.9849 100.27ZM98.2959 112.938C98.2959 117.938 101.851 122.125 106.375 122.125C110.899 122.125 114.454 117.938 114.454 112.938C114.454 107.937 110.899 103.75 106.375 103.75C101.851 103.75 98.2959 107.937 98.2959 112.938Z" fill="#40E0D0" stroke="#00005A"/>
</svg>
