<svg width="119" height="139" viewBox="0 0 119 139" fill="none" xmlns="http://www.w3.org/2000/svg">
<path d="M70.3509 45.4146L70.3503 45.414C67.3396 42.6055 63.7136 41.2 59.5 41.2C55.2864 41.2 51.6627 42.6055 48.6569 45.4143C45.6452 48.2286 44.125 51.6323 44.125 55.6C44.125 59.5677 45.6452 62.9693 48.6572 65.779C51.6629 68.5922 55.2864 70 59.5 70C63.7138 70 67.3399 68.592 70.3506 65.7787C73.3575 62.9689 74.875 59.5674 74.875 55.6C74.875 51.6326 73.3575 48.229 70.3509 45.4146ZM15.1908 94.484L15.1907 94.4838C5.3686 80.9242 0.5 68.4301 0.5 56.99C0.5 39.7441 6.43069 26.0465 18.2731 15.8425L18.2731 15.8425C30.1422 5.61129 43.8775 0.5 59.5 0.5C75.1225 0.5 88.8578 5.61129 100.727 15.8425L100.727 15.8425C112.569 26.0465 118.5 39.7441 118.5 56.99C118.5 68.4302 113.634 80.9243 103.817 94.4839C94.0473 107.975 79.2817 122.602 59.5 138.361C39.7184 122.602 24.9552 107.975 15.1908 94.484Z" fill="#40E0D0" stroke="#00005A"/>
</svg>
